<?xml version="1.0" encoding="iso-8859-1"?>
<!-- Generator: Adobe Illustrator 19.0.0, SVG Export Plug-In . SVG Version: 6.00 Build 0)  -->
<svg version="1.1" id="Layer_1" xmlns="http://www.w3.org/2000/svg" xmlns:xlink="http://www.w3.org/1999/xlink" x="0px" y="0px"
	 viewBox="0 0 505 505" style="enable-background:new 0 0 505 505;" xml:space="preserve">
<circle style="fill:#324A5E;" cx="252.5" cy="252.5" r="252.5"/>
<g>
	<polygon style="fill:#E6E9EE;" points="265.3,90.9 339.3,435.7 355.5,435.7 281.5,90.9 	"/>
	<polygon style="fill:#E6E9EE;" points="223.5,90.9 149.5,435.7 165.7,435.7 239.7,90.9 	"/>
</g>
<path style="fill:#FFFFFF;" d="M416.3,351.1H88.7c-2.6,0-4.8-2.1-4.8-4.8V114.2c0-2.6,2.1-4.8,4.8-4.8h327.7c2.6,0,4.8,2.1,4.8,4.8
	v232.1C421.1,349,419,351.1,416.3,351.1z"/>
<rect x="107.5" y="136.1" style="fill:#4CDBC4;" width="289.9" height="188.3"/>
<g>
	<rect x="238.1" y="177.5" style="fill:#FFFFFF;" width="17.4" height="105.5"/>
	<rect x="208.8" y="207.6" style="fill:#FFFFFF;" width="17.4" height="75.5"/>
	<rect x="179.6" y="229" style="fill:#FFFFFF;" width="17.4" height="54"/>
	<rect x="150.4" y="244.4" style="fill:#FFFFFF;" width="17.4" height="38.6"/>
	<path style="fill:#FFFFFF;" d="M317.1,284v-9.5c-11.8-1.2-22.5-5.9-31.9-14.1l9.5-11.3c7.3,6.3,14.7,10.1,22.4,11.3v-25.1
		c-9.8-2.3-16.9-5.4-21.4-9.2s-6.8-9.4-6.8-16.9s2.6-13.6,7.8-18.3c5.2-4.7,12-7.3,20.4-7.8v-6.5h8.3v6.6c9.5,0.7,18.5,3.9,26.9,9.7
		l-8.4,11.9c-5.7-4.1-11.9-6.6-18.5-7.5v24.3h0.4c9.9,2.3,17.2,5.5,21.9,9.5c4.7,4,7,9.7,7,17.3s-2.7,13.7-8,18.5
		c-5.4,4.8-12.4,7.3-21.2,7.8v9.3L317.1,284L317.1,284z M307.9,200.4c-2.2,1.9-3.3,4.4-3.3,7.3c0,2.9,0.9,5.2,2.6,6.9s5,3.3,9.8,4.9
		v-22.4C313.2,197.3,310.1,198.4,307.9,200.4z M335.2,257.2c2.4-2,3.6-4.5,3.6-7.5s-0.9-5.4-2.8-7.2s-5.4-3.4-10.6-5v23.3
		C329.5,260.4,332.8,259.1,335.2,257.2z"/>
</g>
<g>
</g>
<g>
</g>
<g>
</g>
<g>
</g>
<g>
</g>
<g>
</g>
<g>
</g>
<g>
</g>
<g>
</g>
<g>
</g>
<g>
</g>
<g>
</g>
<g>
</g>
<g>
</g>
<g>
</g>
</svg>
